<svg width="146" height="36" viewBox="0 0 146 36" fill="none" xmlns="http://www.w3.org/2000/svg">
<path d="M14.014 20C12.1864 20 10.5081 19.5711 8.97899 18.7133C7.44985 17.8555 6.23773 16.6713 5.34263 15.1608C4.44752 13.6317 3.99997 11.9068 3.99997 9.98601C3.99997 8.08392 4.44752 6.37762 5.34263 4.86713C6.23773 3.33799 7.44985 2.14452 8.97899 1.28671C10.5081 0.428903 12.1864 0 14.014 0C15.8601 0 17.5384 0.428903 19.0489 1.28671C20.5781 2.14452 21.7809 3.33799 22.6573 4.86713C23.5524 6.37762 24 8.08392 24 9.98601C24 11.9068 23.5524 13.6317 22.6573 15.1608C21.7809 16.6713 20.5781 17.8555 19.0489 18.7133C17.5198 19.5711 15.8415 20 14.014 20ZM14.014 16.5035C15.1888 16.5035 16.2237 16.2424 17.1188 15.7203C18.014 15.1795 18.7133 14.4149 19.2167 13.4266C19.7202 12.4382 19.972 11.2914 19.972 9.98601C19.972 8.68065 19.7202 7.54312 19.2167 6.57343C18.7133 5.58508 18.014 4.82984 17.1188 4.30769C16.2237 3.78555 15.1888 3.52448 14.014 3.52448C12.8391 3.52448 11.7948 3.78555 10.8811 4.30769C9.98598 4.82984 9.28668 5.58508 8.78319 6.57343C8.27969 7.54312 8.02794 8.68065 8.02794 9.98601C8.02794 11.2914 8.27969 12.4382 8.78319 13.4266C9.28668 14.4149 9.98598 15.1795 10.8811 15.7203C11.7948 16.2424 12.8391 16.5035 14.014 16.5035Z" fill="#5370FE"/>
<path fill-rule="evenodd" clip-rule="evenodd" d="M4.40197 32.4981C1.73237 30.1279 0 26.5888 0 21.9727L2.34965 20.9744C2.34965 24.9596 3.82358 27.847 5.96341 29.7469C8.12482 31.666 11.0402 32.6414 13.9955 32.6302C16.9509 32.6189 19.8701 31.621 22.0353 29.693C24.1792 27.7841 25.6503 24.9066 25.6503 20.9744L28 21.9727C28 26.544 26.2648 30.0686 23.5993 32.442C20.9551 34.7965 17.4616 35.9611 14.0045 35.9743C10.5472 35.9874 7.05 34.8492 4.40197 32.4981Z" fill="#5370FE"/>
<path d="M41.856 22.64H49.104V26H37.2V22.88L44.4 12.512H37.2V9.152H49.104V12.272L41.856 22.64ZM59.7529 26.168C58.1689 26.168 56.7129 25.8 55.3849 25.064C54.0729 24.328 53.0249 23.304 52.2409 21.992C51.4729 20.664 51.0889 19.176 51.0889 17.528C51.0889 15.88 51.4729 14.4 52.2409 13.088C53.0249 11.776 54.0729 10.752 55.3849 10.016C56.7129 9.28 58.1689 8.912 59.7529 8.912C61.3369 8.912 62.7849 9.28 64.0969 10.016C65.4249 10.752 66.4649 11.776 67.2169 13.088C67.9849 14.4 68.3689 15.88 68.3689 17.528C68.3689 19.176 67.9849 20.664 67.2169 21.992C66.4489 23.304 65.4089 24.328 64.0969 25.064C62.7849 25.8 61.3369 26.168 59.7529 26.168ZM59.7529 22.424C61.0969 22.424 62.1689 21.976 62.9689 21.08C63.7849 20.184 64.1929 19 64.1929 17.528C64.1929 16.04 63.7849 14.856 62.9689 13.976C62.1689 13.08 61.0969 12.632 59.7529 12.632C58.3929 12.632 57.3049 13.072 56.4889 13.952C55.6889 14.832 55.2889 16.024 55.2889 17.528C55.2889 19.016 55.6889 20.208 56.4889 21.104C57.3049 21.984 58.3929 22.424 59.7529 22.424ZM83.4921 14.576C83.4921 15.552 83.2681 16.448 82.8201 17.264C82.3721 18.064 81.6841 18.712 80.7561 19.208C79.8281 19.704 78.6761 19.952 77.3001 19.952H74.7561V26H70.6521V9.152H77.3001C78.6441 9.152 79.7801 9.384 80.7081 9.848C81.6361 10.312 82.3321 10.952 82.7961 11.768C83.2601 12.584 83.4921 13.52 83.4921 14.576ZM76.9881 16.688C77.7721 16.688 78.3561 16.504 78.7401 16.136C79.1241 15.768 79.3161 15.248 79.3161 14.576C79.3161 13.904 79.1241 13.384 78.7401 13.016C78.3561 12.648 77.7721 12.464 76.9881 12.464H74.7561V16.688H76.9881Z" fill="#5370FE"/>
<rect x="97" y="3.5" width="49" height="29" rx="8" fill="#5370FE"/>
<path d="M107.82 15.934C108.09 15.5607 108.459 15.2573 108.926 15.024C109.402 14.7813 109.929 14.66 110.508 14.66C111.189 14.66 111.805 14.8233 112.356 15.15C112.906 15.4767 113.34 15.9433 113.658 16.55C113.975 17.1473 114.134 17.8333 114.134 18.608C114.134 19.3827 113.975 20.078 113.658 20.694C113.34 21.3007 112.902 21.7767 112.342 22.122C111.791 22.458 111.18 22.626 110.508 22.626C109.91 22.626 109.378 22.5093 108.912 22.276C108.454 22.0427 108.09 21.744 107.82 21.38V22.5H106.224V12.14H107.82V15.934ZM112.51 18.608C112.51 18.076 112.398 17.6187 112.174 17.236C111.959 16.844 111.67 16.55 111.306 16.354C110.951 16.1487 110.568 16.046 110.158 16.046C109.756 16.046 109.374 16.1487 109.01 16.354C108.655 16.5593 108.366 16.858 108.142 17.25C107.927 17.642 107.82 18.104 107.82 18.636C107.82 19.168 107.927 19.6347 108.142 20.036C108.366 20.428 108.655 20.7267 109.01 20.932C109.374 21.1373 109.756 21.24 110.158 21.24C110.568 21.24 110.951 21.1373 111.306 20.932C111.67 20.7173 111.959 20.4093 112.174 20.008C112.398 19.6067 112.51 19.14 112.51 18.608ZM122.782 18.454C122.782 18.7433 122.763 19.0047 122.726 19.238H116.832C116.879 19.854 117.107 20.3487 117.518 20.722C117.929 21.0953 118.433 21.282 119.03 21.282C119.889 21.282 120.495 20.9227 120.85 20.204H122.572C122.339 20.9133 121.914 21.4967 121.298 21.954C120.691 22.402 119.935 22.626 119.03 22.626C118.293 22.626 117.63 22.4627 117.042 22.136C116.463 21.8 116.006 21.3333 115.67 20.736C115.343 20.1293 115.18 19.4293 115.18 18.636C115.18 17.8427 115.339 17.1473 115.656 16.55C115.983 15.9433 116.435 15.4767 117.014 15.15C117.602 14.8233 118.274 14.66 119.03 14.66C119.758 14.66 120.407 14.8187 120.976 15.136C121.545 15.4533 121.989 15.9013 122.306 16.48C122.623 17.0493 122.782 17.7073 122.782 18.454ZM121.116 17.95C121.107 17.362 120.897 16.8907 120.486 16.536C120.075 16.1813 119.567 16.004 118.96 16.004C118.409 16.004 117.938 16.1813 117.546 16.536C117.154 16.8813 116.921 17.3527 116.846 17.95H121.116ZM126.215 16.088V20.358C126.215 20.6473 126.28 20.8573 126.411 20.988C126.551 21.1093 126.784 21.17 127.111 21.17H128.091V22.5H126.831C126.112 22.5 125.561 22.332 125.179 21.996C124.796 21.66 124.605 21.114 124.605 20.358V16.088H123.695V14.786H124.605V12.868H126.215V14.786H128.091V16.088H126.215ZM129.03 18.608C129.03 17.8333 129.188 17.1473 129.506 16.55C129.832 15.9527 130.271 15.4907 130.822 15.164C131.382 14.828 131.998 14.66 132.67 14.66C133.276 14.66 133.804 14.7813 134.252 15.024C134.709 15.2573 135.073 15.5513 135.344 15.906V14.786H136.954V22.5H135.344V21.352C135.073 21.716 134.704 22.0193 134.238 22.262C133.771 22.5047 133.239 22.626 132.642 22.626C131.979 22.626 131.372 22.458 130.822 22.122C130.271 21.7767 129.832 21.3007 129.506 20.694C129.188 20.078 129.03 19.3827 129.03 18.608ZM135.344 18.636C135.344 18.104 135.232 17.642 135.008 17.25C134.793 16.858 134.508 16.5593 134.154 16.354C133.799 16.1487 133.416 16.046 133.006 16.046C132.595 16.046 132.212 16.1487 131.858 16.354C131.503 16.55 131.214 16.844 130.99 17.236C130.775 17.6187 130.668 18.076 130.668 18.608C130.668 19.14 130.775 19.6067 130.99 20.008C131.214 20.4093 131.503 20.7173 131.858 20.932C132.222 21.1373 132.604 21.24 133.006 21.24C133.416 21.24 133.799 21.1373 134.154 20.932C134.508 20.7267 134.793 20.428 135.008 20.036C135.232 19.6347 135.344 19.168 135.344 18.636Z" fill="#080808"/>
</svg>
