<svg width="28" height="36" viewBox="0 0 28 36" fill="none" xmlns="http://www.w3.org/2000/svg">
<path d="M14.014 20.0143C12.1865 20.0143 10.5082 19.5851 8.97902 18.7267C7.44988 17.8682 6.23776 16.6832 5.34266 15.1717C4.44755 13.6414 4 11.9153 4 9.99315C4 8.08969 4.44755 6.38218 5.34266 4.87061C6.23776 3.34038 7.44988 2.14605 8.97902 1.28763C10.5082 0.42921 12.1865 0 14.014 0C15.8601 0 17.5385 0.42921 19.0489 1.28763C20.5781 2.14605 21.7809 3.34038 22.6573 4.87061C23.5524 6.38218 24 8.08969 24 9.99315C24 11.9153 23.5524 13.6414 22.6573 15.1717C21.7809 16.6832 20.5781 17.8682 19.0489 18.7267C17.5198 19.5851 15.8415 20.0143 14.014 20.0143ZM14.014 16.5153C15.1888 16.5153 16.2238 16.254 17.1189 15.7315C18.014 15.1903 18.7133 14.4252 19.2168 13.4362C19.7203 12.4471 19.972 11.2994 19.972 9.99315C19.972 8.68685 19.7203 7.54851 19.2168 6.57812C18.7133 5.58907 18.014 4.83329 17.1189 4.31077C16.2238 3.78825 15.1888 3.52699 14.014 3.52699C12.8392 3.52699 11.7949 3.78825 10.8811 4.31077C9.98601 4.83329 9.28671 5.58907 8.78322 6.57812C8.27972 7.54851 8.02797 8.68685 8.02797 9.99315C8.02797 11.2994 8.27972 12.4471 8.78322 13.4362C9.28671 14.4252 9.98601 15.1903 10.8811 15.7315C11.7949 16.254 12.8392 16.5153 14.014 16.5153Z" fill="#5370FE"/>
<path fill-rule="evenodd" clip-rule="evenodd" d="M4.40197 32.5214C1.73237 30.1494 0 26.6078 0 21.9884L2.34965 20.9894C2.34965 24.9774 3.82358 27.867 5.96341 29.7682C8.12482 31.6886 11.0402 32.6648 13.9955 32.6535C16.9509 32.6422 19.8701 31.6436 22.0353 29.7143C24.1792 27.804 25.6503 24.9245 25.6503 20.9894L28 21.9884C28 26.563 26.2648 30.0901 23.5993 32.4652C20.9551 34.8213 17.4616 35.9868 14.0045 36C10.5472 36.0132 7.05 34.8741 4.40197 32.5214Z" fill="#5370FE"/>
</svg>
